<?xml version="1.0" standalone="no"?>
<!DOCTYPE svg PUBLIC "-//W3C//DTD SVG 20010904//EN"
 "http://www.w3.org/TR/2001/REC-SVG-20010904/DTD/svg10.dtd">
<svg version="1.0" xmlns="http://www.w3.org/2000/svg"
viewBox="0 0 1280.000000 1076.000000"
 preserveAspectRatio="xMidYMid meet">
<metadata>
Created by potrace 1.15, written by Peter Selinger 2001-2017
</metadata>
<g transform="translate(0.000000,1076.000000) scale(0.100000,-0.100000)"
fill="#009688" stroke="none">
<path d="M8287 10745 c-179 -34 -385 -107 -623 -220 -164 -78 -269 -136 -619
-345 -749 -446 -826 -481 -1507 -679 -500 -145 -706 -257 -790 -428 -28 -58
-32 -75 -31 -147 1 -124 46 -230 169 -402 273 -382 766 -757 1344 -1024 387
-179 814 -317 1255 -406 99 -19 182 -37 184 -39 2 -2 -25 -82 -59 -177 -50
-138 -73 -187 -113 -243 -71 -98 -196 -307 -271 -455 -132 -259 -191 -445
-230 -728 -14 -100 -20 -222 -10 -182 4 13 14 14 69 6 59 -9 64 -12 59 -31
-12 -38 4 -10 31 55 15 36 36 78 47 93 31 43 39 18 34 -93 -2 -52 -2 -83 0
-67 5 27 23 38 26 15 0 -7 4 7 7 32 4 30 12 -37 24 -205 32 -440 56 -705 128
-1410 145 -1422 143 -1393 137 -2555 -3 -476 -4 -860 -1 -853 3 7 14 8 36 3
18 -5 86 -16 152 -25 66 -9 127 -20 137 -25 14 -8 17 5 24 128 14 218 11 1288
-4 1517 -19 289 -47 550 -93 864 -126 863 -197 1497 -234 2091 -15 236 -19
586 -5 450 4 -36 7 -55 8 -43 2 21 3 21 55 7 28 -7 53 -14 55 -14 1 0 2 13 2
30 0 95 47 190 96 190 35 0 53 -36 74 -147 10 -54 19 -89 19 -78 1 15 3 17 10
6 5 -8 19 -12 34 -9 22 4 27 1 30 -21 2 -14 5 17 5 69 3 190 -37 473 -114 815
-69 302 -84 382 -84 435 0 32 18 102 56 212 31 89 59 166 63 170 4 4 27 -20
51 -54 51 -69 184 -195 293 -276 410 -306 962 -515 1617 -612 74 -11 150 -20
168 -20 17 0 32 -3 32 -6 0 -16 -110 -130 -178 -185 -128 -103 -229 -161 -444
-254 -310 -135 -513 -256 -702 -419 -68 -59 -188 -193 -255 -285 -25 -35 -80
-102 -122 -147 -99 -108 -167 -210 -239 -359 -87 -181 -157 -402 -194 -620
-14 -81 -21 -166 -9 -124 2 9 15 19 28 22 22 4 24 1 19 -22 -3 -14 12 15 34
64 21 50 50 112 63 139 l26 48 -5 -188 c-4 -203 5 -348 78 -1185 59 -670 100
-1420 100 -1820 0 -177 8 -279 19 -260 7 10 268 -10 288 -22 18 -11 21 49 12
313 -10 305 -39 712 -79 1135 -99 1042 -140 1546 -138 1700 0 76 3 104 7 75 6
-44 6 -44 25 48 28 139 77 282 96 282 13 0 20 -90 20 -239 0 -80 4 -141 8
-135 14 20 42 25 43 6 0 -9 5 -4 9 12 5 15 5 171 1 345 -7 314 -1 495 19 570
14 53 117 195 223 307 184 194 372 321 763 515 275 136 390 205 485 295 88 82
164 171 227 268 l65 98 56 -6 c92 -10 546 -8 676 3 780 69 1457 345 1675 683
103 159 89 288 -44 423 -119 120 -280 208 -686 378 -151 64 -351 149 -443 190
l-169 74 83 48 c243 143 409 297 477 442 22 48 27 72 27 138 0 111 -37 186
-143 294 -143 144 -281 235 -723 474 -363 197 -547 301 -643 367 -39 27 -179
153 -311 280 -745 721 -790 760 -992 873 -110 62 -193 98 -303 133 -199 64
-425 87 -573 59z"/>
<path d="M2375 7550 c-101 -29 -277 -120 -375 -193 -47 -35 -217 -188 -379
-341 -162 -153 -333 -306 -380 -341 -106 -79 -344 -227 -611 -380 -274 -158
-417 -253 -506 -337 -103 -98 -119 -135 -118 -273 0 -98 3 -118 30 -185 151
-378 611 -675 1274 -824 335 -75 801 -126 1144 -126 l143 0 28 -42 c50 -77
156 -198 222 -253 317 -269 625 -345 1533 -375 306 -10 371 -20 528 -78 67
-24 79 -34 131 -97 95 -114 161 -220 248 -395 45 -91 82 -160 82 -155 1 6 27
9 63 7 86 -4 106 -9 111 -30 4 -14 5 -13 6 3 0 12 -5 27 -11 35 -7 8 -3 6 9
-4 24 -20 215 -391 288 -561 246 -568 470 -1357 601 -2115 10 -58 20 -97 22
-88 3 15 20 17 128 20 76 2 126 -1 128 -7 12 -28 3 56 -19 180 -188 1070 -538
2148 -884 2724 -28 46 -51 86 -51 88 0 14 29 -5 80 -52 33 -30 64 -55 70 -55
17 0 23 49 9 82 -39 96 -270 322 -454 445 -132 88 -323 182 -344 168 -5 -2
-26 2 -47 11 -52 22 -160 52 -253 70 -79 15 -137 18 -601 34 -391 13 -604 44
-835 121 -200 67 -362 165 -446 271 -21 27 -39 54 -39 59 0 5 19 9 43 9 64 0
274 27 432 56 676 122 1368 437 1632 742 143 165 208 334 183 474 -15 82 -41
130 -108 200 -95 100 -251 185 -498 271 -358 125 -457 166 -632 257 -258 136
-436 271 -632 481 -299 320 -435 428 -625 495 -77 27 -233 29 -320 4z"/>
<path d="M7871 5164 c0 -11 3 -14 6 -6 3 7 2 16 -1 19 -3 4 -6 -2 -5 -13z"/>
</g>
</svg>
