<?xml version="1.0" encoding="utf-8"?>
<!-- Generator: Adobe Illustrator 23.0.6, SVG Export Plug-In . SVG Version: 6.00 Build 0)  -->
<svg version="1.1" xmlns="http://www.w3.org/2000/svg" xmlns:xlink="http://www.w3.org/1999/xlink" x="0px" y="0px"
     viewBox="0 0 14.2 14.2" style="enable-background:new 0 0 14.2 14.2;" xml:space="preserve"
     fill="currentColor">
  <path class="st5" d="M7.1,9.5C7.1,9.5,7,9.5,7.1,9.5C6.9,9.4,6.9,9.4,7,9.3l0.2-0.4C7,8.7,6.8,8.5,6.7,8.3c-0.1-0.3,0-0.6,0.1-1
        l0,0c0.4-0.8,1.7-1.2,1.8-1.2c0,0,0.1,0,0.1,0c0,0,0.1,0.1,0.1,0.1c0,0.1,0.4,1.4,0,2.1C8.6,9,8,9.2,7.5,9L7.2,9.4
        C7.2,9.5,7.1,9.5,7.1,9.5z M7.6,8.7c0.3,0.1,0.7,0.1,1-0.5c0.3-0.5,0.1-1.4,0-1.7c-0.3,0.1-1.2,0.5-1.5,1C7,7.7,6.9,8,7,8.2
        c0,0.1,0.1,0.3,0.3,0.4L8,7.3c0-0.1,0.1-0.1,0.2-0.1c0.1,0,0.1,0.1,0.1,0.2L7.6,8.7z"/>
  <path class="st5" d="M10.9,11.1H3.1c-0.1,0-0.2-0.1-0.2-0.2V7c0,0,0-0.1,0-0.1l2.3-2.3c0,0,0.1,0,0.1,0h6.5c0.1,0,0.2,0.1,0.2,0.2v1
        c0,0.1-0.1,0.2-0.2,0.2s-0.2-0.1-0.2-0.2V4.9H5.4L3.2,7.1v3.7h7.7c0.1,0,0.2,0.1,0.2,0.2S11,11.1,10.9,11.1z"/>
  <path class="st5" d="M 5.4 7.2 L 3.2 7.2 C 3.1 7.2 3.1 7.1 3.1 7 C 3.1 6.9 3.2 6.8 3.3 6.8 L 5.4 6.8 L 5.392 4.887 C 5.392 4.787 5.492 4.666 5.592 4.666 C 5.692 4.666 5.801 4.767 5.801 4.867 L 5.8 7 C 5.6 7.1 5.5 7.2 5.4 7.2 Z"></path>
  <path class="st5" d="M 12.1 12.1 C 12 12.1 11.9 12.1 11.9 12 L 10.3 10.2 C 10.2 10.1 10.2 10 10.2 9.9 C 10.2 9.8 10.4 9.7 10.5 9.7 L 11.1 9.7 L 11.1 7.2 C 11.1 7.1 11.2 7 11.3 7 C 11.4 7 11.5 7.1 11.5 7.2 L 11.5 9.8 C 11.5 9.9 11.4 9.9 11.4 10 L 10.6 10 L 12.2 11.8 L 13.8 10 L 13 10 C 12.9 10 12.8 9.9 12.8 9.8 L 12.802 7.205 C 12.802 7.105 12.915 6.993 13.015 6.993 C 13.115 6.993 13.216 7.105 13.216 7.205 L 13.2 9.7 L 13.8 9.7 C 13.9 9.7 14 9.8 14.1 9.9 C 14.2 10 14.1 10.1 14 10.2 L 12.3 12 C 12.3 12 12.2 12.1 12.1 12.1 Z"></path>
  <path class="st5" d="M13,7.4c-0.1,0-0.2-0.1-0.2-0.2V7.1C12.8,7.1,12.9,7,13,7s0.2,0.1,0.2,0.2v0.1C13.1,7.3,13.1,7.4,13,7.4z"/>
  <path class="st5" d="M13,8.1c-0.1,0-0.2-0.1-0.2-0.2V7.7c0-0.1,0.1-0.2,0.2-0.2s0.2,0.1,0.2,0.2V8C13.1,8,13.1,8.1,13,8.1z"/>
  <path class="st5" d="M2.3,9.6H1.9c-0.1,0-0.2-0.1-0.2-0.2V3.5c0-0.1,0.1-0.2,0.2-0.2h8.4c0.1,0,0.2,0.1,0.2,0.2V4
        c0,0.1-0.1,0.2-0.2,0.2S10.1,4.1,10.1,4V3.6H2v5.6h0.3c0.1,0,0.2,0.1,0.2,0.2S2.4,9.6,2.3,9.6z"/>
  <path class="st5" d="M0.9,8.2H0.5C0.4,8.2,0.3,8.1,0.3,8V2.1C0.3,2,0.4,2,0.5,2h8.4C9,2,9.1,2,9.1,2.1v0.5c0,0.1-0.1,0.2-0.2,0.2
        S8.8,2.8,8.8,2.7V2.3H0.6v5.6h0.3C1,7.9,1.1,8,1.1,8S1,8.2,0.9,8.2z"/>
</svg>
