<?xml version="1.0" encoding="utf-8"?>
<!-- Generator: Adobe Illustrator 23.0.6, SVG Export Plug-In . SVG Version: 6.00 Build 0)  -->
<svg version="1.1" id="Layer_1"
  xmlns="http://www.w3.org/2000/svg"
  xmlns:xlink="http://www.w3.org/1999/xlink" x="0px" y="0px" viewBox="0 0 14.2 14.2" style="enable-background:new 0 0 14.2 14.2;" xml:space="preserve" fill="currentColor">
  <g id="Layer_6">
    <g>
      <path d="M7.1,13.8c-0.1,0-0.2-0.1-0.2-0.2V8.4l-4.2,5.3c-0.1,0.1-0.2,0.1-0.4,0c-0.1-0.1-0.1-0.2,0-0.4l4.4-5.6H2.5
			c-0.1,0-0.2-0.1-0.2-0.2V3.7c0-0.1,0.1-0.2,0.2-0.2h1.3c0.1-1.7,1.6-3,3.4-3s3.2,1.3,3.4,3h1.2c0.1,0,0.2,0.1,0.2,0.2v3.8
			c0,0.1-0.1,0.2-0.2,0.2H7.6l4.2,5.6c0.1,0.1,0.1,0.3,0,0.4c-0.1,0.1-0.3,0.1-0.4,0l-4-5.4v5.2C7.4,13.7,7.2,13.8,7.1,13.8z
			 M2.7,7.3h8.8V4h-1c-0.1,1.7-1.6,3-3.4,3S3.9,5.7,3.8,4h-1L2.7,7.3L2.7,7.3z M7.1,1C5.6,1,4.3,2.2,4.3,3.7s1.3,2.7,2.9,2.7
			S10,5.2,10,3.7S8.7,1,7.1,1z M7.1,5.6c-1.1,0-2-0.8-2-1.9s0.9-1.9,2-1.9s2,0.8,2,1.9S8.2,5.6,7.1,5.6z M7.1,2.4
			C6.3,2.4,5.7,3,5.7,3.7c0,0.8,0.7,1.4,1.5,1.4s1.5-0.6,1.5-1.4C8.6,3,7.9,2.4,7.1,2.4z"/>
    </g>
  </g>
</svg>
