<?xml version="1.0" encoding="utf-8"?>
<!-- Generator: Adobe Illustrator 23.0.6, SVG Export Plug-In . SVG Version: 6.00 Build 0)  -->
<svg version="1.1" id="Layer_1"
  xmlns="http://www.w3.org/2000/svg"
  xmlns:xlink="http://www.w3.org/1999/xlink" x="0px" y="0px" viewBox="0 0 14.2 14.2" style="enable-background:new 0 0 14.2 14.2;" xml:space="preserve" fill="currentColor">
  <g id="Layer_4">
    <g>
      <path d="M9.4,13.8H4.8c-0.6,0-1.1-0.5-1.1-1.1v-1.5c0-0.6,0.5-1.1,1.1-1.1h0.7V8.4c0-0.1,0.1-0.2,0.2-0.2h2.7
			c0.1,0,0.2,0.1,0.2,0.2v1.8h0.7c0.6,0,1.1,0.5,1.1,1.1v1.5C10.5,13.3,10,13.8,9.4,13.8z M4.8,10.6c-0.3,0-0.6,0.3-0.6,0.6v1.5
			c0,0.3,0.3,0.6,0.6,0.6h4.6c0.3,0,0.6-0.3,0.6-0.6v-1.5c0-0.3-0.3-0.6-0.6-0.6H4.8z M6,10.1h2.2V8.6H6V10.1z M9.3,12.8H7.8
			c-0.1,0-0.2-0.1-0.2-0.2v-1c0-0.1,0.1-0.2,0.2-0.2h1.5c0.1,0,0.2,0.1,0.2,0.2v1C9.6,12.7,9.5,12.8,9.3,12.8z M8,12.3h1v-0.5H8
			V12.3z M0.9,7.4c-0.1,0-0.1,0-0.1,0c-0.1,0-0.1-0.1-0.1-0.2V5.3l0,0V3.4l0,0V1.6c0-0.1,0.1-0.2,0.2-0.2c0.8-0.3,1.9-0.5,3-0.7l0,0
			c1-0.1,2.2-0.2,3.3-0.2c2.4,0,4.7,0.3,6.3,0.9c0.1,0,0.2,0.1,0.2,0.2v1.8l0,0v1.9l0,0v1.8c0,0.1,0,0.2-0.1,0.2s-0.2,0.1-0.2,0
			c-1.6-0.5-3.8-0.9-6.1-0.9C6,6.5,4.9,6.5,3.9,6.7l0,0C2.8,6.8,1.8,7.1,0.9,7.4L0.9,7.4z M1.1,5.5v1.3c0.7-0.2,1.6-0.4,2.5-0.5V4.9
			C2.7,5.1,1.8,5.2,1.1,5.5z M10.6,6.2c0.9,0.1,1.8,0.3,2.5,0.5V5.5c-0.7-0.2-1.6-0.4-2.5-0.6V6.2z M4.1,4.9v1.3C5,6,5.9,6,6.9,6
			V4.7C5.9,4.7,5,4.7,4.1,4.9z M7.4,6c0.9,0,1.8,0,2.7,0.1V4.8C9.2,4.7,8.3,4.7,7.4,4.7V6z M1.1,3.6V5c0.7-0.2,1.6-0.4,2.5-0.5V3
			C2.7,3.2,1.8,3.3,1.1,3.6z M10.6,4.4c0.9,0.1,1.8,0.3,2.5,0.5V3.6c-0.7-0.2-1.6-0.4-2.5-0.6V4.4z M4.1,3v1.4
			C5,4.2,5.9,4.2,6.9,4.2V2.8C5.9,2.8,5,2.8,4.1,3z M7.4,4.2c0.9,0,1.8,0.1,2.7,0.2V2.9C9.2,2.8,8.3,2.8,7.4,2.8V4.2z M1.1,1.8v1.3
			c0.7-0.2,1.6-0.4,2.5-0.5V1.2C2.7,1.4,1.8,1.6,1.1,1.8z M10.6,2.5c0.9,0.1,1.8,0.3,2.5,0.5V1.8c-0.7-0.2-1.6-0.4-2.5-0.6V2.5z
			 M4.1,1.2v1.3C5,2.3,5.9,2.3,6.9,2.3V1C5.9,1,5,1.1,4.1,1.2z M7.4,2.3c0.9,0,1.8,0.1,2.7,0.2V1.2C9.2,1.1,8.3,1,7.4,1V2.3z"/>
    </g>
  </g>
</svg>
