<?xml version="1.0" encoding="utf-8"?>
<!-- Generator: Adobe Illustrator 23.0.6, SVG Export Plug-In . SVG Version: 6.00 Build 0)  -->
<svg version="1.1" xmlns="http://www.w3.org/2000/svg" xmlns:xlink="http://www.w3.org/1999/xlink" x="0px" y="0px"
	 viewBox="0 0 14.2 14.2" style="enable-background:new 0 0 14.2 14.2;" xml:space="preserve"
	 fill="currentColor">
  <g id="Layer_3">
    <g>
	    <path d="M12.7,13.9c-0.1,0-0.2-0.1-0.2-0.2v-2.3H8.3c-1,0-1.8-0.5-1.8-1.3V7.3C5.9,7.1,5.3,6.6,5.2,5.9H2.7
			  c-0.1,0-0.2-0.1-0.2-0.2V5.5c-1-0.1-1.7-0.9-1.7-1.9c0-0.5,0.2-1,0.6-1.3c0.3-0.4,0.9-0.5,0.9-0.5c0.1,0,0.3,0.1,0.3,0.2
			  c0,0.1-0.1,0.3-0.2,0.3c0,0-0.4,0.1-0.6,0.3c-0.2,0.2-0.4,0.5-0.4,1c0,0.7,0.5,1.3,1.2,1.4V2.8c0-0.1,0.1-0.2,0.2-0.2h0.4
			  c0.1,0,0.2,0.1,0.2,0.2S3.3,3,3.1,3H3v2.4h7.7V3.2c0-0.1,0.1-0.2,0.2-0.2s0.2,0.1,0.2,0.2v2.5c0,0.1-0.1,0.2-0.2,0.2H8.4
			  C8.3,6.6,7.7,7.1,7,7.3V10c0,0.5,0.5,0.8,1.3,0.8h4.2V8c0-0.1,0.1-0.2,0.2-0.2S13,7.9,13,8v5.6C13,13.7,12.9,13.9,12.7,13.9z
			  M5.7,5.9c0.1,0.5,0.5,0.9,1.1,0.9c0.5,0,1-0.4,1.1-0.9H5.7z"/>
      <path d="M11.4,3.3H3.6c-0.1,0-0.1,0-0.2-0.1L0.8,1C0.7,0.9,0.7,0.8,0.7,0.7c0-0.1,0.1-0.2,0.2-0.2h9.5
			  c1,0,1.2,0.5,1.2,0.8v1.7C11.7,3.2,11.5,3.3,11.4,3.3z M3.7,2.8h7.5V1.4c0-0.1,0-0.3-0.7-0.3H1.6L3.7,2.8z"/>
	  </g>
  </g>
</svg>
