<?xml version="1.0" encoding="utf-8"?>
<!-- Generator: Adobe Illustrator 23.0.6, SVG Export Plug-In . SVG Version: 6.00 Build 0)  -->
<svg version="1.1" id="Layer_1" xmlns="http://www.w3.org/2000/svg" xmlns:xlink="http://www.w3.org/1999/xlink" x="0px" y="0px"
	 viewBox="0 0 14.2 14.2" style="enable-background:new 0 0 14.2 14.2;" xml:space="preserve"
	 fill="currentColor">
  <g>
	  <g>
		  <path d="M6.9,13.9c-0.1,0-0.2-0.1-0.2-0.2V8.4l-3.8,5.3c-0.1,0.1-0.2,0.1-0.3,0.1c-0.1-0.1-0.1-0.2-0.1-0.3l4.1-5.6
			  H3.5c-0.7,0-1.2-0.6-1.2-1.2V3c0-0.7,0.5-1.2,1.2-1.2h0.2l0,0v-1c0-0.1,0.1-0.2,0.2-0.2h2.6c0.1,0,0.2,0.1,0.2,0.2v1h3.5
			  c0.7,0,1.2,0.6,1.2,1.2v3.5c0,0.7-0.5,1.2-1.2,1.2h-3l4,5.6c0.1,0.1,0.1,0.3-0.1,0.3c-0.1,0.1-0.3,0.1-0.3-0.1L7.1,8.4v5.2
			  C7.1,13.8,7,13.9,6.9,13.9z M3.5,2.3C3.2,2.3,2.8,2.6,2.8,3v3.5c0,0.4,0.3,0.7,0.7,0.7h6.8C10.7,7.3,11,7,11,6.6V3
			  c0-0.4-0.3-0.7-0.7-0.7H6.6H6.5H3.5z M4.2,1.8h2.1V1H4.2V1.8L4.2,1.8z M6.9,6.8c-1,0-1.9-0.9-1.9-2s0.9-2,1.9-2s1.9,0.9,1.9,2
			  S8,6.8,6.9,6.8z M6.9,3.3C6.1,3.3,5.5,4,5.5,4.8s0.6,1.5,1.4,1.5s1.4-0.7,1.4-1.5S7.7,3.3,6.9,3.3z"/>
	  </g>
  </g>
</svg>
